# xmcd
#
# Track frame offsets:
#	150
#	14131
#	26479
#	40291
#	54541
#	67997
#	79133
#	96094
#	110567
#	124532
#	137418
#	153804
#	167397
#
# Disc length: 2408 seconds
# Revision: 0
# Processed by: cddbd v1.5.2PL0 Copyright (c) Steve Scherf et al.
# Submitted via: dBpowerAMP V12.0
#
DISCID=9d09660d
DTITLE=The Churchmen - Crown Of Thorns
DYEAR=2015
DGENRE=Country Gospel
TTITLE0=A Crown of Thorns
TTITLE1=You Can Run, But You Can't Hide
TTITLE2=Fire and Flood
TTITLE3=I Will Rise
TTITLE4=What a Wonderful Time
TTITLE5=Do You Know That You've Been Born Again?
TTITLE6=He Doesn't Care Where You've Been
TTITLE7=Harbor in the Sky
TTITLE8=For Thine
TTITLE9=The King is on His Throne
TTITLE10=I Pray a Double Portion
TTITLE11=The Words I Can't Say
TTITLE12=I'd Rather Have Jesus
EXTD=
EXTT0=
EXTT1=
EXTT2=
EXTT3=
EXTT4=
EXTT5=
EXTT6=
EXTT7=
EXTT8=
EXTT9=
EXTT10=
EXTT11=
EXTT12=
PLAYORDER=
